<?xml version="1.0" standalone="no"?><!DOCTYPE svg PUBLIC "-//W3C//DTD SVG 1.1//EN" "http://www.w3.org/Graphics/SVG/1.1/DTD/svg11.dtd"><svg class="icon" width="200px" height="200.00px" viewBox="0 0 1024 1024" version="1.1" xmlns="http://www.w3.org/2000/svg"><path d="M852 335.2H172V202.9c0-18.7 15.3-34 34-34h612c18.7 0 34 15.3 34 34v132.3z" fill="#2D3647" /><path d="M816.8 194.8c5.1 0 9.3 4.3 9.3 9.3v105.2H197.9V204.1c0-5.1 4.3-9.3 9.3-9.3h609.6m0-25.9H207.2c-19.4 0-35.2 15.8-35.2 35.2v131.1h680V204.1c0-19.4-15.8-35.2-35.2-35.2z" fill="#E04B87" /><path d="M172 692.8h680v132.3c0 18.7-15.3 34-34 34H206c-18.7 0-34-15.3-34-34V692.8z" fill="#EDBFAB" /><path d="M826.1 718.7v105.2c0 5.1-4.3 9.3-9.3 9.3H207.2c-5.1 0-9.3-4.3-9.3-9.3V718.7h628.2m25.9-25.9H172v131.1c0 19.4 15.8 35.2 35.2 35.2h609.6c19.4 0 35.2-15.8 35.2-35.2V692.8z" fill="#E04B87" /><path d="M172 343.5h680v166.3H172z" fill="#EDBFAB" /><path d="M826.1 369.4V484H197.9V369.4h628.2m25.9-25.9H172v166.3h680V343.5z" fill="#E04B87" /><path d="M172 518.1h680v166.3H172z" fill="#2D3647" /><path d="M826.1 544v114.6H197.9V544h628.2m25.9-25.9H172v166.3h680V518.1z" fill="#E04B87" /></svg>