<?xml version="1.0" standalone="no"?><!DOCTYPE svg PUBLIC "-//W3C//DTD SVG 1.1//EN" "http://www.w3.org/Graphics/SVG/1.1/DTD/svg11.dtd"><svg class="icon" width="200px" height="200.00px" viewBox="0 0 1024 1024" version="1.1" xmlns="http://www.w3.org/2000/svg"><path d="M642.56 928.45c-2.36 0-4.71-0.32-6.99-0.94l-484.65-133c-6.81-1.87-12.49-6.29-16-12.45-3.51-6.16-4.41-13.31-2.54-20.12L301.99 143.9c3.15-11.47 13.67-19.49 25.58-19.49 2.36 0 4.71 0.32 6.99 0.94l484.65 133c14.09 3.87 22.41 18.48 18.54 32.57L668.14 908.96c-3.14 11.47-13.66 19.49-25.58 19.49z" fill="#2D3647" /><path d="M327.57 136.92c1.22 0 2.45 0.16 3.68 0.5l484.65 133c7.43 2.04 11.83 9.78 9.8 17.21L656.09 905.65c-1.7 6.2-7.38 10.29-13.52 10.29-1.22 0-2.45-0.16-3.68-0.5l-484.65-133c-7.43-2.04-11.83-9.78-9.8-17.21L314.05 147.2c1.7-6.19 7.37-10.28 13.52-10.28m0-25c-17.52 0-33 11.79-37.63 28.68L120.33 758.63c-5.69 20.74 6.55 42.24 27.29 47.93l484.65 133c3.36 0.92 6.82 1.39 10.3 1.39 17.52 0 33-11.79 37.63-28.68l169.6-618.03c5.69-20.74-6.55-42.24-27.29-47.93l-484.65-133c-3.35-0.93-6.82-1.39-10.29-1.39z" fill="#E04B87" /><path d="M179.99 635.77l134.24-489.15c1.98-7.21 9.23-11.5 16.19-9.59l486.4 133.48c11.64 3.2-639.91 376.49-636.83 365.26z" fill="#E8BCA9" /><path d="M903.87 871.98c-12.13 12.13-31.98 12.13-44.1 0L583.91 596.12c-12.13-12.13-12.13-31.98 0-44.1 12.13-12.13 31.98-12.13 44.1 0l275.85 275.85c12.14 12.13 12.14 31.98 0.01 44.11z" fill="#2D3647" /><path d="M572.257 571.186l31.417-31.416 46.187 46.187-31.416 31.417z" fill="#E04B87" /><path d="M911.46 543c0 36.25-19.33 50.64-43.18 50.64S825.1 579.25 825.1 543s43.18-80.64 43.18-80.64 43.18 44.39 43.18 80.64z" fill="#E04B87" /></svg>