<?xml version="1.0" standalone="no"?><!DOCTYPE svg PUBLIC "-//W3C//DTD SVG 1.1//EN" "http://www.w3.org/Graphics/SVG/1.1/DTD/svg11.dtd"><svg class="icon" width="200px" height="200.00px" viewBox="0 0 1024 1024" version="1.1" xmlns="http://www.w3.org/2000/svg"><path d="M508.7 638.81L164.39 294.5 508.7 117 853 294.5z" fill="#2E3546" /><path d="M177 696.61V315.12l331.75 171.63L840.5 315.12v381.49L508.75 901.82z" fill="#E7C1AD" /><path d="M828 335.66v353.99L508.75 887.12 189.5 689.65V335.66l307.76 159.22 11.49 5.94 11.49-5.94L828 335.66m25-41.08L508.75 472.67 164.5 294.58v409l344.25 212.94L853 703.58v-409z" fill="#E04B87" /><path d="M508.75 880.5z" fill="#E7C1AD" /><path d="M521.25 483h-25v410h25V483z" fill="#E04B87" /><path d="M853 293.98L508.63 116.09 164.26 293.98l11.47 22.21 332.9-171.96 332.9 171.96z" fill="#E7C1AD" /><path d="M508.63 116.09L164.26 293.98l11.47 22.21 332.9-171.96 332.9 171.96L853 293.98 508.63 116.09z" fill="#E04B87" /></svg>